<?xml version="1.0" encoding="iso-8859-1"?>
<!-- Generator: Adobe Illustrator 19.0.0, SVG Export Plug-In . SVG Version: 6.00 Build 0)  -->
<svg style="color: white" xmlns="http://www.w3.org/2000/svg" width="16" height="16" fill="currentColor" class="bi bi-whatsapp" viewBox="0 0 16 16">
<svg style="color: white" xmlns="http://www.w3.org/2000/svg" width="16" height="16" fill="currentColor" class="bi bi-twitter" viewBox="0 0 16 16">
<svg style="color: white" xmlns="http://www.w3.org/2000/svg" width="16" height="16" fill="currentColor" class="bi bi-linkedin" viewBox="0 0 16 16">
<svg style="color: white" xmlns="http://www.w3.org/2000/svg" width="16" height="16" fill="currentColor" class="bi bi-github" viewBox="0 0 16 16">
<svg style="color: white" xmlns="http://www.w3.org/2000/svg" viewBox="0 0 24 24">
<svg xmlns="http://www.w3.org/2000/svg" viewBox="0 0 24 24"> <g> <path fill="none" d="M0 0h24v24H0z"/> 
<svg version="1.1" id="Capa_1" xmlns="http://www.w3.org/2000/svg" xmlns:xlink="http://www.w3.org/1999/xlink" x="0px" y="0px"
	 viewBox="0 0 479.862 479.862" style="enable-background:new 0 0 479.862 479.862;" xml:space="preserve">
<path style="fill:#DEDEDE;" d="M359.862,127.095v-0.048h-240v0.048C57.531,127.556,7.375,178.46,7.837,240.791
	c0.462,62.331,51.365,112.487,113.697,112.025c29.992-0.222,58.663-12.373,79.681-33.77h77.296
	c43.685,44.457,115.139,45.083,159.596,1.398s45.083-115.139,1.398-159.596C418.493,139.466,389.839,127.322,359.862,127.095
	L359.862,127.095z"/>
<circle style="fill:#C7C7C7;" cx="359.862" cy="239.047" r="96"/>
<circle style="fill:#4398D1;" cx="359.862" cy="183.047" r="24"/>
<circle style="fill:#FDB62F;" cx="359.862" cy="295.047" r="24"/>
<circle style="fill:#88B337;" cx="303.862" cy="239.047" r="24"/>
<circle style="fill:#DE4C3C;" cx="415.862" cy="239.047" r="24"/>
<path style="fill:#737373;" d="M183.862,215.047h-40v-40h-48v40h-40v48h40v40h48v-40h40V215.047z"/>
<path style="fill:#666666;" d="M95.862,263.047v40h48v-40h40v-48h-40L95.862,263.047z"/>
<path style="fill:#77A61F;" d="M289.086,257.823c4.191,3.365,9.401,5.206,14.776,5.224c13.255,0,24-10.745,24-24
	c-0.018-5.375-1.859-10.585-5.224-14.776L289.086,257.823z"/>
<path style="fill:#3E8CC7;" d="M345.086,201.823c4.191,3.365,9.401,5.206,14.776,5.224c13.255,0,24-10.745,24-24
	c-0.018-5.375-1.859-10.585-5.224-14.776L345.086,201.823z"/>
<path style="fill:#FFA83D;" d="M345.086,313.823c4.191,3.365,9.401,5.206,14.776,5.224c13.255,0,24-10.745,24-24
	c-0.018-5.375-1.859-10.585-5.224-14.776L345.086,313.823z"/>
<path style="fill:#CF4031;" d="M401.086,257.823c4.191,3.365,9.401,5.206,14.776,5.224c13.255,0,24-10.745,24-24
	c-0.018-5.375-1.859-10.585-5.224-14.776L401.086,257.823z"/>
<path d="M359.862,215.047c17.673,0,32-14.327,32-32s-14.327-32-32-32s-32,14.327-32,32S342.189,215.047,359.862,215.047z
	 M359.862,167.047c8.837,0,16,7.163,16,16s-7.163,16-16,16s-16-7.163-16-16S351.025,167.047,359.862,167.047z"/>
<path d="M359.862,263.047c-17.673,0-32,14.327-32,32s14.327,32,32,32s32-14.327,32-32S377.535,263.047,359.862,263.047z
	 M359.862,311.047c-8.837,0-16-7.163-16-16s7.163-16,16-16s16,7.163,16,16S368.698,311.047,359.862,311.047z"/>
<path d="M303.862,207.047c-17.673,0-32,14.327-32,32c0,17.673,14.327,32,32,32s32-14.327,32-32
	C335.862,221.374,321.535,207.047,303.862,207.047z M303.862,255.047c-8.837,0-16-7.163-16-16c0-8.837,7.163-16,16-16
	s16,7.163,16,16C319.862,247.883,312.698,255.047,303.862,255.047z"/>
<path d="M383.862,239.047c0,17.673,14.327,32,32,32s32-14.327,32-32c0-17.673-14.327-32-32-32S383.862,221.374,383.862,239.047z
	 M431.862,239.047c0,8.837-7.163,16-16,16s-16-7.163-16-16c0-8.837,7.163-16,16-16S431.862,230.21,431.862,239.047z"/>
<path d="M183.862,207.047h-32v-32c0-4.418-3.582-8-8-8h-48c-4.418,0-8,3.582-8,8v32h-32c-4.418,0-8,3.582-8,8v48
	c0,4.418,3.582,8,8,8h32v32c0,4.418,3.582,8,8,8h48c4.418,0,8-3.582,8-8v-32h32c4.418,0,8-3.582,8-8v-48
	C191.862,210.628,188.28,207.047,183.862,207.047z M175.862,255.047h-32c-4.418,0-8,3.582-8,8v32h-32v-32c0-4.418-3.582-8-8-8h-32
	v-32h32c4.418,0,8-3.582,8-8v-32h32v32c0,4.418,3.582,8,8,8h32V255.047z"/>
<path d="M360.83,119.103c-0.321-0.039-0.644-0.058-0.968-0.056h-240c-0.321-0.002-0.642,0.017-0.96,0.056
	C52.159,120.187-1.068,175.171,0.016,241.913c1.071,65.93,54.787,118.835,120.726,118.902c31.254,0.092,61.309-12.024,83.76-33.768
	h70.72c48.094,46.277,124.596,44.804,170.873-3.289c21.674-22.525,33.777-52.572,33.767-83.831
	C479.668,173.974,426.773,120.282,360.83,119.103L360.83,119.103z M358.982,344.815c-28.137,0.077-55.108-11.238-74.768-31.368
	c-1.5-1.531-3.552-2.395-5.696-2.4h-77.312c-2.144,0.005-4.196,0.869-5.696,2.4c-40.588,41.307-106.977,41.889-148.283,1.301
	S5.338,207.771,45.926,166.465c19.522-19.868,46.147-31.152,74-31.362c0.267,0,0.535-0.016,0.8-0.048H358.99
	c0.265,0.032,0.533,0.048,0.8,0.048c57.911,0.676,104.309,48.17,103.633,106.08c-0.668,57.269-47.161,103.408-104.433,103.64
	L358.982,344.815z"/>
<path d="M13.601 2.326A7.854 7.854 0 0 0 7.994 0C3.627 0 .068 3.558.064 7.926c0 1.399.366 2.76 1.057 3.965L0 16l4.204-1.102a7.933
 7.933 0 0 0 3.79.965h.004c4.368 0 7.926-3.558 7.93-7.93A7.898 7.898 0 0 0 13.6 2.326zM7.994 14.521a6.573 6.573 0 0 1-3.356-.92l-.24-.144-2.494.654.666-2.433-.156-.251a6.56
  6.56 0 0 1-1.007-3.505c0-3.626 2.957-6.584 6.591-6.584a6.56 6.56 0 0 1 4.66 1.931 6.557 6.557 0 0 1 1.928 4.66c-.004 3.639-2.961 6.592-6.592
   6.592zm3.615-4.934c-.197-.099-1.17-.578-1.353-.646-.182-.065-.315-.099-.445.099-.133.197-.513.646-.627.775-.114.133-.232.148-.43.05-.197-.1-.836-.308-1.592-.985-.59-.525-.985-1.175-1.103-1.372-.114-.198-.011-.304.088-.403.087-.088.197-.232.296-.346.1-.114.133-.198.198-.33.065-.134.034-.248-.015-.347-.05-.099-.445-1.076-.612-1.47-.16-.389-.323-.335-.445-.34-.114-.007-.247-.007-.38-.007a.729.729 0 0 0-.529.247c-.182.198-.691.677-.691 1.654 0 .977.71 1.916.81 2.049.098.133 1.394 2.132 3.383 2.992.47.205.84.326 1.129.418.475.152.904.129 1.246.08.38-.058 1.171-.48 1.338-.943.164-.464.164-.86.114-.943-.049-.084-.182-.133-.38-.232z" fill="white"/>
<path d="M5.026 15c6.038 0 9.341-5.003 9.341-9.334 0-.14 0-.282-.006-.422A6.685 6.685 0 0 0 16 3.542a6.658 6.658 0 0 1-1.889.518 3.301 3.301
 0 0 0 1.447-1.817 6.533 6.533 0 0 1-2.087.793A3.286 3.286 0 0 0 7.875 6.03a9.325 9.325 0 0 1-6.767-3.429 3.289 3.289 0 0 0 1.018 4.382A3.323
  3.323 0 0 1 .64 6.575v.045a3.288 3.288 0 0 0 2.632 3.218 3.203 3.203 0 0 1-.865.115 3.23 3.23 0 0 1-.614-.057 3.283 3.283 0 0 0 3.067 2.277A6.588 6.588
   0 0 1 .78 13.58a6.32 6.32 0 0 1-.78-.045A9.344 9.344 0 0 0 5.026 15z" fill="white"/>
<path d="M0 1.146C0 .513.526 0 1.175 0h13.65C15.474 0 16 .513 16 1.146v13.708c0 .633-.526 1.146-1.175 1.146H1.175C.526 16 0 15.487
 0 14.854V1.146zm4.943 12.248V6.169H2.542v7.225h2.401zm-1.2-8.212c.837 0 1.358-.554 1.358-1.248-.015-.709-.52-1.248-1.342-1.248-.822
  0-1.359.54-1.359 1.248 0 .694.521 1.248 1.327 1.248h.016zm4.908 8.212V9.359c0-.216.016-.432.08-.586.173-.431.568-.878 1.232-.878.869
   0 1.216.662 1.216 1.634v3.865h2.401V9.25c0-2.22-1.184-3.252-2.764-3.252-1.274 0-1.845.7-2.165 1.193v.025h-.016a5.54 5.54 0 0 1 .016-.025V6.169h-2.4c.03.678
    0 7.225 0 7.225h2.4z" fill="white"/>
<path d="M8 0C3.58 0 0 3.58 0 8c0 3.54 2.29 6.53 5.47 7.59.4.07.55-.17.55-.38 0-.19-.01-.82-.01-1.49-2.01.37-2.53-.49-2.69-.94-.09-.23-.48-.94-.82-1.13-.28-.15-.68-.52-.01-.53.63-.01
 1.08.58 1.23.82.72 1.21 1.87.87 2.33.66.07-.52.28-.87.51-1.07-1.78-.2-3.64-.89-3.64-3.95 0-.87.31-1.59.82-2.15-.08-.2-.36-1.02.08-2.12
  0 0 .67-.21 2.2.82.64-.18 1.32-.27 2-.27.68 0 1.36.09 2 .27 1.53-1.04 2.2-.82 2.2-.82.44 1.1.16 1.92.08 2.12.51.56.82 1.27.82 2.15
   0 3.07-1.87 3.75-3.65 3.95.29.25.54.73.54 1.48 0 1.07-.01 1.93-.01 2.2 0 .21.15.46.55.38A8.012 8.012 0 0 0 16 8c0-4.42-3.58-8-8-8z" fill="white"/>
<path d="M12 2C6.48 2 2 6.48 2 12s4.48 10 10 10h5v-2h-5c-4.34 0-8-3.66-8-8s3.66-8 8-8 8 3.66 8 8v1.43c0 .79-.71 1.57-1.5
 1.57s-1.5-.78-1.5-1.57V12c0-2.76-2.24-5-5-5s-5 2.24-5 5 2.24 5 5 5c1.38 0 2.64-.56 3.54-1.47.65.89 1.77 1.47 2.96 1.47 1.97
  0 3.5-1.6 3.5-3.57V12c0-5.52-4.48-10-10-10zm0 13c-1.66 0-3-1.34-3-3s1.34-3 3-3 3 1.34 3 3-1.34 3-3 3z" fill="white"/>
<path fill-rule="nonzero" d="M2.004 22l1.352-4.968A9.954 9.954 0 0 1 2 12C2 6.477 6.477 2 12 2s10 4.477 10 10-4.477 10-10
 10a9.954 9.954 0 0 1-5.03-1.355L2.004 22zM8.391 7.308a.961.961 0 0 0-.371.1 1.293 1.293 0 0 0-.294.228c-.12.113-.188.211-.261.306A2.729
  2.729 0 0 0 6.9 9.62c.002.49.13.967.33 1.413.409.902 1.082 1.857 1.971 2.742.214.213.423.427.648.626a9.448 9.448 0 0 0 3.84
   2.046l.569.087c.185.01.37-.004.556-.013a1.99 1.99 0 0 0 .833-.231c.166-.088.244-.132.383-.22 0 0
    .043-.028.125-.09.135-.1.218-.171.33-.288.083-.086.155-.187.21-.302.078-.163.156-.474.188-.733.024-.198.017-.306.014-.373-.004-.107-.093-.218-.19-.265l-.582-.261s-.87-.379-1.401-.621a.498.498
	 0 0 0-.177-.041.482.482 0 0 0-.378.127v-.002c-.005 0-.072.057-.795.933a.35.35 0 0 1-.368.13 1.416 1.416
	  0 0 1-.191-.066c-.124-.052-.167-.072-.252-.109l-.005-.002a6.01 6.01 0 0 1-1.57-1c-.126-.11-.243-.23-.363-.346a6.296 6.296
	   0 0 1-1.02-1.268l-.059-.095a.923.923 0 0 1-.102-.205c-.038-.147.061-.265.061-.265s.243-.266.356-.41a4.38 4.38 0 0 0
	    .263-.373c.118-.19.155-.385.093-.536-.28-.684-.57-1.365-.868-2.041-.059-.134-.234-.23-.393-.249-.054-.006-.108-.012-.162-.016a3.385 3.385
		 0 0 0-.403.004z"/>
</g>
<g>
</g>
<g>
</g>
<g>
</g>
<g>
</g>
<g>
</g>
<g>
</g>
<g>
</g>
<g>
</g>
<g>
</g>
<g>
</g>
<g>
</g>
<g>
</g>
<g>
</g>
<g>
</g>
<g>
</g>
<g>
</g>
<g>
</g>
<g>
</g>
<g>
</g>
</svg>
